<?xml version="1.0" encoding="utf-8"?>
<!-- Generator: Adobe Illustrator 26.5.0, SVG Export Plug-In . SVG Version: 6.00 Build 0)  -->
<svg version="1.1" id="Layer_2_00000042705006282786756080000004507137350612131226_"
	 xmlns="http://www.w3.org/2000/svg" xmlns:xlink="http://www.w3.org/1999/xlink" x="0px" y="0px" viewBox="0 0 4264 2586.7"
	 style="enable-background:new 0 0 4264 2586.7;" xml:space="preserve">
<style type="text/css">
	.st0{clip-path:url(#SVGID_00000023247414852443659200000016202948063897099407_);}
	.st1{fill:#77AAE8;}
	.st2{fill:#171717;}
	.st3{fill:#A266AA;}
	.st4{fill:#7FBE42;}
	.st5{fill:#F15C5B;}
	.st6{clip-path:url(#SVGID_00000095320369056749066080000017809515696267057027_);}
	.st7{fill:#64A5D5;}
</style>
<g id="Layer_2-2">
	<g>
		<defs>
			<rect id="SVGID_1_" x="589.3" y="370.7" width="717.3" height="717.3"/>
		</defs>
		<clipPath id="SVGID_00000124859679774533198970000007900711435849069732_">
			<use xlink:href="#SVGID_1_"  style="overflow:visible;"/>
		</clipPath>
		<g style="clip-path:url(#SVGID_00000124859679774533198970000007900711435849069732_);">
			<g>
				
					<rect x="868" y="171.6" transform="matrix(0.7071 -0.7071 0.7071 0.7071 -241.1069 889.507)" class="st1" width="170.4" height="1128.4"/>
				
					<rect x="570.1" y="469.5" transform="matrix(0.7071 -0.7071 0.7071 0.7071 -538.9782 766.1258)" class="st2" width="170.4" height="1128.4"/>
				
					<rect x="719.7" y="319.9" transform="matrix(0.7071 -0.7071 0.7071 0.7071 -389.4183 828.0698)" class="st3" width="170.4" height="1128.4"/>
				
					<rect x="1017.6" y="22" transform="matrix(0.7071 -0.7071 0.7071 0.7071 -91.5471 951.4568)" class="st4" width="170.4" height="1128.4"/>
				
					<rect x="1167.1" y="-127.5" transform="matrix(0.7071 -0.7071 0.7071 0.7071 58.0128 1013.4067)" class="st5" width="170.4" height="1128.4"/>
			</g>
		</g>
	</g>
</g>
<g id="Layer_2-2_00000182501445511669863270000003899605873315973011_">
	<g>
		<defs>
			<rect id="SVGID_00000168832110282015708520000011560082629821263803_" x="2562.2" y="392.8" width="717.3" height="717.3"/>
		</defs>
		<clipPath id="SVGID_00000078029433261999111750000015794779428022861470_">
			<use xlink:href="#SVGID_00000168832110282015708520000011560082629821263803_"  style="overflow:visible;"/>
		</clipPath>
		<g style="clip-path:url(#SVGID_00000078029433261999111750000015794779428022861470_);">
			<g>
				
					<rect x="2840.9" y="193.7" transform="matrix(0.7071 -0.7071 0.7071 0.7071 321.0611 2291.0244)" class="st7" width="170.4" height="1128.4"/>
				
					<rect x="2543" y="491.6" transform="matrix(0.7071 -0.7071 0.7071 0.7071 23.1898 2167.6431)" class="st2" width="170.4" height="1128.4"/>
				
					<rect x="2692.5" y="342.1" transform="matrix(0.7071 -0.7071 0.7071 0.7071 172.7497 2229.5872)" class="st3" width="170.4" height="1128.4"/>
				
					<rect x="2990.4" y="44.2" transform="matrix(0.7071 -0.7071 0.7071 0.7071 470.6209 2352.9744)" class="st4" width="170.4" height="1128.4"/>
				
					<rect x="3140" y="-105.4" transform="matrix(0.7071 -0.7071 0.7071 0.7071 620.1808 2414.9241)" class="st5" width="170.4" height="1128.4"/>
			</g>
		</g>
	</g>
</g>
</svg>
