<?xml version="1.0" encoding="UTF-8"?>
<svg id="Layer_2" data-name="Layer 2" xmlns="http://www.w3.org/2000/svg" viewBox="0 0 785.67 705.83">
  <defs>
    <style>
      .cls-1 {
        stroke: #fff;
        stroke-linejoin: round;
        stroke-width: 35px;
      }
    </style>
  </defs>
  <g id="Layer_1-2" data-name="Layer 1">
    <path d="M723,82.79h41.98c11.43,0,20.69,9.26,20.69,20.69V649.5c0,21.56-17.01,43.13-38.56,44l-356.44,12.33v-17.67c100.33-84,332.33-77.54,332.33-77.54V82.79Z"/>
    <path class="cls-1" d="M408.17,687.28V104.13C528.98,22.81,627.18,14.36,680.74,18.27c24.98,1.82,44.41,22.42,44.66,47.46l5.09,502.64c.27,26.58-21.08,48.21-47.66,48.55-142.46,1.83-256.16,51.13-274.66,70.35Z"/>
    <path d="M62.67,82.79H20.69C9.26,82.79,0,92.05,0,103.48V649.5c0,21.56,17.01,43.13,38.56,44l356.44,12.33v-17.67c-100.33-84-332.33-77.54-332.33-77.54V82.79Z"/>
    <path class="cls-1" d="M377.49,687.28V104.13C256.68,22.81,158.48,14.36,104.92,18.27c-24.98,1.82-44.41,22.42-44.66,47.46l-5.09,502.64c-.27,26.58,21.08,48.21,47.66,48.55,142.46,1.83,256.16,51.13,274.66,70.35Z"/>
  </g>
</svg>