<?xml version="1.0" encoding="UTF-8"?>
<svg id="Layer_2" data-name="Layer 2" xmlns="http://www.w3.org/2000/svg" viewBox="0 0 567.43 544.85">
  <defs>
    <style>
      .cls-1, .cls-2 {
        fill: #fff;
      }

      .cls-2 {
        stroke: #fff;
        stroke-linecap: round;
        stroke-miterlimit: 10;
        stroke-width: 69px;
      }
    </style>
  </defs>
  <g id="Layer_2-2" data-name="Layer 2">
    <path class="cls-2" d="M449.15,145.98c60.04,1.35,82.06,40.13,83.7,74.77,1.8,37.97-28.53,76.58-79.8,67.92"/>
    <path class="cls-1" d="M95.89,99.08L504.25,0l1.09,5.68c27.52,143.2,21.41,290.83-17.83,431.26h0L96.19,343.02C38.79,329.24-1.24,277.32,.03,218.31H.03c1.23-56.88,40.57-105.82,95.86-119.23Z"/>
    <path class="cls-1" d="M111.19,382.08l125.33,32-18.29,85.97c-5.01,23.57-24.4,41.37-48.31,44.36h0c-15.37,1.92-30.85-2.54-42.84-12.35l-13.45-11c-16.26-13.31-23.81-34.53-19.6-55.11l17.15-83.86h0Z"/>
  </g>
</svg>