<?xml version="1.0" encoding="UTF-8"?>
<svg id="Layer_2" data-name="Layer 2" xmlns="http://www.w3.org/2000/svg" viewBox="0 0 857.55 893.73">
  <g id="Layer_1-2" data-name="Layer 1">
    <path d="M789.81,602.16L200.23,734.57,61.66,600.65l14.31-52.46c6.55-24.02,28.38-40.69,53.28-40.69h170.49c36.07,51.4,129.05,149.67,129.05,149.67,0,0,104.57-112.95,131.95-149.67h159.78c24.45,0,45.98,16.08,52.94,39.52l16.35,55.14Z"/>
    <polygon points="745.18 893.39 362.21 891.1 232.94 766.17 553.18 694.25 745.18 893.39"/>
    <path d="M801.97,893.73l-3.7-.02-201.7-209.2,204.07-45.83,54.6,184.13c10.54,35.52-16.22,71.14-53.27,70.92Z"/>
    <path d="M307.18,890.78l-252.26-1.51c-36.27-.22-62.49-34.76-52.94-69.75l48.28-177.05,256.92,248.31Z"/>
    <path d="M605.83,80.12C570.84,26.96,511.6,0,429.76,0s-138.88,25.27-174.1,75.09c-46.67,66.02-39.69,157.58-23.62,203.01,14.15,40,49.59,104.61,94.79,172.83,13.19,19.91,26.44,38.98,39.24,56.57,22.57,31.01,43.77,57.42,60.9,75.76,23.97-26.92,44.97-52,63.56-75.76,65.1-83.16,100.89-150.17,132.5-223.54,22.43-52.06,24.02-141.19-17.2-203.84Zm-176.76,265.05c-70.69,0-128-57.31-128-128s57.31-128,128-128,128,57.31,128,128-57.31,128-128,128Z"/>
  </g>
</svg>