<?xml version="1.0" encoding="UTF-8"?>
<svg id="Layer_2" data-name="Layer 2" xmlns="http://www.w3.org/2000/svg" viewBox="0 0 984.97 1049.67">
  <defs>
    <style>
      .cls-1 {
        fill: none;
        stroke: #050505;
        stroke-linecap: round;
        stroke-miterlimit: 10;
        stroke-width: 94px;
      }
    </style>
  </defs>
  <g id="Layer_2-2" data-name="Layer 2">
    <g id="Layer_1-2" data-name="Layer 1-2">
      <path d="M815.64,102.9H169.33C75.81,102.9,0,178.71,0,272.23V880.33c0,93.52,75.81,169.34,169.33,169.34H815.64c93.52,0,169.33-75.82,169.33-169.34V272.23c0-93.52-75.81-169.33-169.33-169.33Zm60.22,741.43c0,51.55-41.79,93.34-93.33,93.34H199.5c-51.55,0-93.33-41.79-93.33-93.34V371.03H875.86v473.3h0Z"/>
      <circle cx="271.99" cy="544.68" r="74.35"/>
      <circle cx="487.84" cy="544.68" r="74.35"/>
      <circle cx="701.29" cy="544.68" r="74.35"/>
      <circle cx="271.99" cy="756.56" r="74.35"/>
      <circle cx="487.84" cy="756.56" r="74.35"/>
      <circle cx="701.29" cy="756.56" r="74.35"/>
      <line class="cls-1" x1="716.61" y1="47" x2="716.61" y2="219.93"/>
      <line class="cls-1" x1="491.01" y1="47" x2="491.01" y2="219.93"/>
      <line class="cls-1" x1="258.04" y1="47" x2="258.04" y2="219.93"/>
    </g>
  </g>
</svg>